<?xml version="1.0" standalone="no"?>
<!DOCTYPE svg PUBLIC "-//W3C//DTD SVG 20010904//EN"
 "http://www.w3.org/TR/2001/REC-SVG-20010904/DTD/svg10.dtd">
<svg version="1.0" xmlns="http://www.w3.org/2000/svg"
 width="664.000000pt" height="190.000000pt" viewBox="0 0 664.000000 190.000000"
 preserveAspectRatio="xMidYMid meet">

<g transform="translate(0.000000,190.000000) scale(0.100000,-0.100000)"
fill="#000000" stroke="none">
<path d="M510 1347 c0 -17 398 -409 410 -405 22 8 411 399 405 408 -4 6 -149
10 -411 10 -330 0 -404 -2 -404 -13z"/>
<path d="M1710 930 l0 -433 183 5 c158 5 190 8 242 28 147 56 231 155 264 308
14 67 14 106 0 174 -22 103 -42 141 -114 213 -54 54 -85 74 -180 116 -20 8
-93 14 -212 17 l-183 4 0 -432z m358 246 c80 -42 132 -139 132 -244 0 -76 -14
-123 -53 -173 -46 -59 -104 -89 -180 -92 l-62 -2 -3 259 c-2 201 1 262 10 268
18 12 123 1 156 -16z"/>
<path d="M3278 1213 l-3 -148 -30 -5 c-29 -5 -30 -6 -33 -73 -2 -49 1 -67 10
-69 7 0 18 -2 23 -2 33 -4 35 -17 35 -216 l0 -200 23 -5 c13 -4 50 -5 82 -3
l60 3 5 205 5 205 55 5 55 5 3 73 3 72 -49 0 c-26 0 -53 5 -60 12 -8 8 -12 56
-12 150 l0 138 -85 0 -84 0 -3 -147z"/>
<path d="M4654 1343 c-7 -20 -61 -167 -74 -198 -4 -11 -22 -58 -40 -105 -18
-47 -36 -94 -40 -105 -4 -11 -18 -47 -30 -80 -12 -33 -26 -69 -30 -80 -4 -11
-22 -58 -40 -105 -18 -47 -36 -94 -41 -105 -25 -58 -22 -60 80 -60 104 0 95
-6 136 87 l26 58 172 0 172 0 11 -27 c6 -16 17 -44 24 -63 23 -60 25 -61 124
-58 85 3 91 4 88 23 -3 17 -27 88 -52 150 -4 11 -17 46 -29 78 -12 31 -30 83
-42 115 -12 31 -25 66 -29 77 -4 11 -17 46 -29 78 -12 31 -30 83 -42 115 -24
65 -27 74 -61 157 l-24 60 -112 3 c-100 2 -113 1 -118 -15z m152 -283 c14 -41
29 -84 34 -95 18 -40 50 -142 50 -158 0 -15 -14 -17 -120 -17 -66 0 -120 2
-120 5 0 23 115 345 123 342 5 -1 20 -36 33 -77z"/>
<path d="M5747 1353 c-4 -3 -7 -194 -7 -423 0 -310 3 -419 12 -428 7 -7 40
-12 80 -12 56 0 69 3 78 19 6 12 10 98 10 210 l0 190 53 3 52 3 3 72 3 72 -53
3 -53 3 -2 125 c-4 181 2 170 -92 170 -43 0 -81 -3 -84 -7z"/>
<path d="M2680 1071 c-82 -18 -150 -74 -189 -156 -30 -63 -30 -206 -1 -269 44
-92 120 -150 213 -161 86 -11 132 1 179 46 23 21 45 39 50 39 4 0 8 -15 8 -34
0 -22 6 -36 16 -40 30 -12 121 -6 133 8 8 9 11 92 9 282 l-3 269 -75 0 c-74 0
-75 0 -78 -27 -4 -33 -22 -36 -48 -7 -10 12 -31 27 -46 35 -33 17 -122 25
-168 15z m156 -156 c70 -34 107 -110 85 -172 -44 -126 -187 -153 -265 -50 -35
45 -37 131 -4 172 48 61 122 81 184 50z"/>
<path d="M3840 1073 c-35 -6 -102 -40 -133 -69 -69 -64 -106 -185 -87 -281 16
-75 33 -109 84 -161 58 -61 95 -76 186 -77 85 0 120 13 159 57 32 37 39 35 43
-9 l3 -38 75 0 75 0 0 280 0 280 -75 0 c-74 0 -75 0 -78 -27 -2 -16 -6 -28 -8
-28 -3 0 -21 12 -40 26 -59 46 -123 60 -204 47z m160 -165 c54 -37 75 -73 75
-128 0 -34 -6 -57 -21 -77 -78 -105 -205 -96 -262 19 -20 40 -22 52 -13 85 6
21 18 49 27 61 43 62 134 80 194 40z"/>
<path d="M5277 1053 c-4 -3 -7 -127 -7 -274 0 -311 -7 -292 108 -287 l67 3 5
150 c7 216 34 260 168 273 l67 7 0 65 0 65 -56 0 c-69 0 -100 -16 -134 -67
-14 -21 -30 -38 -35 -38 -6 0 -10 25 -10 55 l0 55 -83 0 c-46 0 -87 -3 -90 -7z"/>
<path d="M828 823 c-49 -47 -88 -89 -88 -94 0 -4 -8 -10 -18 -13 -9 -3 -62
-51 -117 -106 l-100 -100 207 0 206 0 98 96 c86 85 96 98 81 109 -9 6 -15 14
-12 17 2 2 -35 43 -83 91 l-87 86 -87 -86z"/>
</g>
</svg>
